<?xml version="1.0" encoding="utf-8"?>
<!-- Generator: Adobe Illustrator 24.3.0, SVG Export Plug-In . SVG Version: 6.00 Build 0)  -->
<svg version="1.1" id="Layer_1" xmlns="http://www.w3.org/2000/svg" xmlns:xlink="http://www.w3.org/1999/xlink" x="0px" y="0px"
	 viewBox="0 0 300 88.4" style="enable-background:new 0 0 300 88.4;" xml:space="preserve">
<style type="text/css">
	.st0{fill:#CFCEDD;}
	.st1{fill:#F1E405;}
	.st2{fill:#231F20;}
	.st3{fill:#EC2027;}
	.st4{fill:#A6A8AB;}
</style>
<g>
	<path class="st0" d="M50,8.8c-9.3,0-17.9,12.1-17.9,12.1l-7.3,47.9c0.7,5.4,2.9,12.5,7.3,16c2.5,1.9,5.7,2.6,8.9,2.6
		c4.5,0,9.3-1.4,13-2.8c7.6-2.9,14.3-9,18.1-16.2c4.1-7.7,7.7-22.5,0.2-29.4c-1.2-1.1-8.5-5.9-11.9-5.9c-0.6,0-1,0.1-1.3,0.4
		c1.7-1.7,5-5.6,3-15.2C58.4,11.2,54.1,8.8,50,8.8"/>
	<path class="st1" d="M30.1,18.9c0,0,18.2-25.4,30-2.6c2,9.6-1.3,13.5-3,15.2c2.1-2.1,11.8,4.2,13.2,5.5c7.4,6.9,3.8,21.7-0.2,29.4
		C66.3,73.6,59.6,79.7,52,82.6c-6.4,2.5-15.8,4.8-21.9,0.2c-4.5-3.4-6.7-10.5-7.3-16L30.1,18.9z"/>
	<path class="st2" d="M31,18.2l-0.6-0.6L31,18.2L31,18.2l-0.6-0.6L31,18.2c0,0,2.2-2.2,5.3-4.3c1.5-1.1,3.3-2.1,5.1-2.9
		c1.8-0.8,3.6-1.2,5.3-1.2c0.7,0,1.5,0.1,2.1,0.3c1,0.3,2,0.8,2.9,1.7c0.9,0.9,1.9,2.1,2.7,3.9l2-0.9l-2.1,0.4
		c0.3,1.5,0.4,2.9,0.4,4.1c0,3.7-1.1,6.5-2.3,8.3c-0.6,0.9-1.1,1.6-1.5,2c-0.2,0.2-0.4,0.4-0.5,0.5c-0.1,0-0.1,0.1-0.1,0.1l0,0
		l0.6,0.7l-0.6-0.7l0,0l0.6,0.7l-0.6-0.7c-0.7,0.6-1,1.5-0.7,2.4c0.3,0.9,1.1,1.4,2,1.4v-0.6l0,0.6h0v-0.6l0,0.6c0,0,1,0,2.5,0.3
		c1.1,0.2,2.4,0.5,3.8,1.1c1,0.4,2.1,0.9,3,1.6c1.5,1,2.8,2.4,3.7,4.2c1,1.8,1.6,4.2,1.6,7.4c0,0.9,0,1.8-0.2,2.7
		c-0.5,4.6-2,8.6-4.2,12.2c-3.3,5.3-8.1,9.5-13.4,12.4c-5.3,2.9-11,4.5-15.7,4.8l0.1,2.2l0.1-2.2c-2-0.1-3.6-0.4-4.8-0.8
		c-1.8-0.6-2.8-1.5-3.4-2.1c-0.3-0.3-0.5-0.6-0.6-0.8c0-0.1-0.1-0.1-0.1-0.2l0,0l-1.1,0.5l1.1-0.4l0,0l-1.1,0.5l1.1-0.4
		c-0.4-1.1-1.7-1.7-2.8-1.2c-1.1,0.4-1.7,1.7-1.2,2.8c0,0.1,0.2,0.6,0.7,1.2c0.6,0.9,1.8,2.2,3.8,3.3c2,1.1,4.7,1.9,8.3,2l0.2,0
		c3.7-0.2,7.7-1.1,11.7-2.6c6-2.3,11.9-6,16.6-11.1c2.4-2.6,4.4-5.5,6-8.8c1.6-3.3,2.6-6.9,3.1-10.8c0.1-1.1,0.2-2.2,0.2-3.2
		c0-2.3-0.3-4.3-0.8-6.1c-0.9-3.2-2.5-5.6-4.5-7.4c-1.4-1.4-3-2.4-4.5-3.1c-2.3-1.1-4.6-1.6-6.2-1.9c-1.7-0.3-2.8-0.3-2.9-0.3v2.2
		l1.3,1.7c0.1-0.1,1.6-1.3,3.1-3.7C57.5,27.5,59,24,59,19.3c0-1.5-0.2-3.2-0.5-5c0-0.2-0.1-0.3-0.2-0.5c-0.7-1.5-1.5-2.7-2.3-3.8
		c-1.3-1.6-2.8-2.8-4.4-3.5c-1.6-0.7-3.3-1.1-4.9-1.1c-2.4,0-4.8,0.7-7,1.6c-3.3,1.4-6.2,3.4-8.3,5c-2.1,1.7-3.4,3-3.5,3
		c-0.8,0.8-0.8,2.2,0,3.1C28.7,19,30.1,19,31,18.2"/>
	<polygon class="st3" points="7.9,43.3 23.3,42.1 21.5,65.8 24.1,64.4 24.5,67.2 25.7,64.1 25.9,63.4 25.7,66.6 25.5,69.7 
		27.3,62.7 27.8,64.6 29.7,41.2 48.6,39.1 48.6,37.7 49.8,36.3 45.1,37 53,35.6 45.3,35.4 50,34.7 47.7,34.4 50.5,32.8 30.4,35.1 
		31.1,23.7 30.1,20.4 29.7,24.1 28.7,20.4 28.3,24.1 26.4,21.6 25.9,19 24.3,35.6 2.5,38.4 6.8,39.3 1.4,40.5 6.3,40.7 1.1,42.4 
		7.5,41.4 3.7,43.3 	"/>
	<g>
		<polygon class="st4" points="89.5,39.6 86,39.6 85.3,24.5 82.4,39.6 79,39.6 82.8,21.5 88.2,21.5 88.7,34.2 94.9,21.5 100.3,21.5 
			96.5,39.6 93.1,39.6 96.7,24.6 		"/>
		<path class="st4" d="M103.9,21.5h3.6l-0.7,3.2h-3.6L103.9,21.5z M102.9,26.5h3.6l-2.7,13.1h-3.6L102.9,26.5z"/>
		<path class="st4" d="M110,26.5h3.4l-0.3,1.7c0.8-0.7,1.6-1.2,2.4-1.6c0.7-0.3,1.5-0.5,2.3-0.5c1.1,0,1.9,0.3,2.6,0.9
			c0.6,0.6,0.9,1.4,0.9,2.5c0,0.5-0.1,1.3-0.4,2.6l-1.5,7.4h-3.6l1.6-7.5c0.2-1.1,0.3-1.8,0.3-2c0-0.5-0.1-0.8-0.4-1.1
			c-0.3-0.3-0.6-0.4-1.1-0.4c-0.5,0-1.1,0.2-1.7,0.7c-0.6,0.4-1.1,1-1.5,1.7c-0.3,0.5-0.6,1.6-0.9,3.1l-1.1,5.4h-3.6L110,26.5z"/>
		<path class="st4" d="M126.5,21.5h3.6l-0.7,3.2h-3.6L126.5,21.5z M125.4,26.5h3.6l-2.7,13.1h-3.6L125.4,26.5z"/>
		<path class="st4" d="M129.3,36l3.4-0.5c0.3,0.7,0.7,1.2,1.1,1.5c0.5,0.3,1.1,0.5,1.9,0.5c0.8,0,1.5-0.2,1.9-0.5
			c0.3-0.2,0.5-0.5,0.5-0.9c0-0.2-0.1-0.5-0.3-0.6c-0.2-0.2-0.7-0.4-1.5-0.7c-2.1-0.7-3.5-1.3-4-1.7c-0.8-0.6-1.2-1.5-1.2-2.5
			c0-1,0.4-1.9,1.2-2.7c1.1-1,2.7-1.6,4.8-1.6c1.7,0,3,0.3,3.8,0.9c0.9,0.6,1.4,1.5,1.6,2.5l-3.3,0.6c-0.2-0.5-0.5-0.8-0.8-1.1
			c-0.5-0.3-1.2-0.5-1.9-0.5c-0.7,0-1.3,0.1-1.6,0.4c-0.3,0.2-0.5,0.5-0.5,0.9c0,0.3,0.2,0.6,0.5,0.8c0.2,0.1,0.9,0.4,2,0.7
			c1.7,0.5,2.9,1,3.5,1.5c0.8,0.7,1.2,1.5,1.2,2.5c0,1.2-0.5,2.3-1.6,3.2c-1,0.9-2.5,1.4-4.4,1.4c-1.9,0-3.4-0.3-4.4-1
			C130.3,38.2,129.6,37.2,129.3,36"/>
		<path class="st4" d="M144.7,29.1l0.5-2.6h1.7l0.4-2.1l4.1-2.5l-1,4.6h2.2l-0.5,2.6H150l-1.2,5.5c-0.2,1-0.3,1.6-0.3,1.7
			c0,0.3,0.1,0.5,0.3,0.6c0.2,0.2,0.5,0.2,0.9,0.2c0.2,0,0.5,0,1.2-0.1l-0.6,2.6c-0.6,0.1-1.2,0.2-1.9,0.2c-1.3,0-2.2-0.2-2.7-0.7
			c-0.6-0.5-0.9-1.2-0.9-2c0-0.4,0.2-1.3,0.5-2.8l1.1-5.3H144.7z"/>
		<path class="st4" d="M162.1,32c0-0.2,0-0.3,0-0.4c0-1-0.2-1.7-0.7-2.2c-0.4-0.5-1-0.7-1.8-0.7c-0.7,0-1.4,0.3-2,0.8
			c-0.6,0.6-1,1.4-1.2,2.5H162.1z M165.1,34.2h-8.9c0,0.1,0,0.2,0,0.3c0,0.9,0.3,1.6,0.8,2.1c0.5,0.5,1.1,0.8,1.8,0.8
			c1.2,0,2.1-0.6,2.8-1.8l3.2,0.5c-0.6,1.3-1.4,2.2-2.5,2.9c-1,0.6-2.2,1-3.5,1c-1.8,0-3.2-0.6-4.3-1.7c-1.1-1.1-1.7-2.6-1.7-4.4
			c0-1.8,0.5-3.4,1.5-4.8c1.4-1.9,3.3-2.8,5.8-2.8c1.6,0,2.9,0.5,3.8,1.5c0.9,1,1.4,2.4,1.4,4.2C165.3,32.7,165.2,33.5,165.1,34.2"
			/>
		<path class="st4" d="M168.9,26.5h3.3l-0.5,2.5c1.2-1.9,2.6-2.9,4-2.9c0.5,0,1.1,0.1,1.6,0.4l-1.4,2.9c-0.3-0.1-0.7-0.2-1-0.2
			c-0.6,0-1.2,0.2-1.9,0.7c-0.6,0.5-1.1,1.1-1.5,1.9c-0.4,0.8-0.7,2-1.1,3.7l-0.9,4.1h-3.6L168.9,26.5z"/>
		<path class="st4" d="M180,21.5h3.6l-0.7,3.2h-3.6L180,21.5z M179,26.5h3.6l-2.7,13.1h-3.6L179,26.5z"/>
		<path class="st4" d="M193.9,31.6c0-0.8-0.2-1.5-0.7-2c-0.5-0.5-1.1-0.8-1.9-0.8c-0.8,0-1.4,0.2-2,0.7c-0.6,0.5-1.1,1.2-1.4,2.1
			c-0.3,0.9-0.5,1.7-0.5,2.5c0,0.9,0.3,1.7,0.8,2.2c0.5,0.6,1.2,0.8,1.9,0.8c1,0,1.8-0.4,2.5-1.2C193.5,34.8,193.9,33.3,193.9,31.6
			 M183.8,34.2c0-2.4,0.7-4.4,2.1-5.8c1.4-1.4,3.2-2.2,5.4-2.2c1.9,0,3.5,0.5,4.5,1.6c1.1,1.1,1.6,2.5,1.6,4.3c0,2.1-0.7,4-2,5.5
			c-1.4,1.6-3.2,2.3-5.5,2.3c-1.2,0-2.3-0.2-3.3-0.7c-1-0.5-1.7-1.2-2.1-2.1C184,36.2,183.8,35.2,183.8,34.2"/>
		<path class="st4" d="M198.3,36l3.4-0.5c0.3,0.7,0.7,1.2,1.1,1.5c0.5,0.3,1.1,0.5,1.9,0.5c0.8,0,1.5-0.2,1.9-0.5
			c0.3-0.2,0.5-0.5,0.5-0.9c0-0.2-0.1-0.5-0.3-0.6c-0.2-0.2-0.7-0.4-1.5-0.7c-2.1-0.7-3.5-1.3-4-1.7c-0.8-0.6-1.2-1.5-1.2-2.5
			c0-1,0.4-1.9,1.2-2.7c1.1-1,2.7-1.6,4.8-1.6c1.7,0,3,0.3,3.8,0.9c0.9,0.6,1.4,1.5,1.6,2.5l-3.3,0.6c-0.2-0.5-0.5-0.8-0.8-1.1
			c-0.5-0.3-1.2-0.5-1.9-0.5c-0.7,0-1.3,0.1-1.6,0.4c-0.3,0.2-0.5,0.5-0.5,0.9c0,0.3,0.2,0.6,0.5,0.8c0.2,0.1,0.9,0.4,2,0.7
			c1.7,0.5,2.9,1,3.5,1.5c0.8,0.7,1.2,1.5,1.2,2.5c0,1.2-0.5,2.3-1.6,3.2c-1,0.9-2.5,1.4-4.4,1.4c-1.9,0-3.4-0.3-4.4-1
			C199.4,38.2,198.7,37.2,198.3,36"/>
	</g>
	<polygon class="st2" points="79.2,79.4 79.2,46.1 103.2,46.1 103.2,50 83.6,50 83.6,60.2 102,60.2 102,64.1 83.6,64.1 83.6,75.5 
		104,75.5 104,79.4 	"/>
	<polygon class="st2" points="79.2,79.4 79.8,79.4 79.8,46.6 102.7,46.6 102.7,49.4 83.1,49.4 83.1,60.8 101.4,60.8 101.4,63.6 
		83.1,63.6 83.1,76 103.4,76 103.4,78.9 79.2,78.9 79.2,79.4 79.8,79.4 79.2,79.4 79.2,80 104.5,80 104.5,74.9 84.2,74.9 84.2,64.7 
		102.5,64.7 102.5,59.6 84.2,59.6 84.2,50.6 103.8,50.6 103.8,45.5 78.7,45.5 78.7,80 79.2,80 	"/>
	<polygon class="st2" points="109.9,79.4 109.9,46.1 114.4,46.1 131.9,72.3 131.9,46.1 136.1,46.1 136.1,79.4 131.6,79.4 
		114.1,53.2 114.1,79.4 	"/>
	<polygon class="st2" points="109.9,79.4 110.5,79.4 110.5,46.6 114.1,46.6 132.4,74.2 132.4,46.6 135.5,46.6 135.5,78.9 
		131.9,78.9 113.6,51.3 113.6,78.9 109.9,78.9 109.9,79.4 110.5,79.4 109.9,79.4 109.9,80 114.7,80 114.7,55 131.3,80 136.6,80 
		136.6,45.5 131.3,45.5 131.3,70.4 114.7,45.5 109.4,45.5 109.4,80 109.9,80 	"/>
	<path class="st2" d="M147.8,75.5h7.1c2.9,0,5-0.4,6.5-1.1c1.5-0.8,2.6-2,3.4-3.7c1.1-2.3,1.6-5,1.6-8.1c0-3.4-0.6-6-1.7-8
		c-1.1-1.9-2.5-3.2-4.3-3.9c-1.2-0.4-3-0.7-5.6-0.7h-7V75.5z M143.4,79.4V46.1h11.5c2.8,0,5,0.2,6.5,0.6c1.9,0.5,3.6,1.5,5,2.9
		c1.4,1.4,2.5,3.2,3.3,5.3c0.8,2.1,1.2,4.7,1.2,7.6c0,3.8-0.7,7-2,9.6c-1.3,2.6-3.1,4.5-5.2,5.6c-2.1,1.1-4.9,1.6-8.3,1.6H143.4z"/>
	<path class="st2" d="M147.8,75.5V76h7.1c2.9,0,5.1-0.4,6.7-1.2c1.6-0.8,2.8-2.2,3.6-4c1.1-2.4,1.6-5.1,1.6-8.4
		c0-3.4-0.6-6.2-1.7-8.3c-1.2-2-2.7-3.4-4.6-4.1c-1.3-0.5-3.2-0.7-5.8-0.7h-7.5V76h0.6V75.5h0.6V50.6h6.4c2.5,0,4.4,0.2,5.4,0.6
		c1.6,0.6,2.9,1.8,4,3.6c1,1.8,1.6,4.4,1.6,7.7c0,3.1-0.5,5.7-1.5,7.9c-0.8,1.6-1.8,2.7-3.1,3.4c-1.3,0.7-3.4,1.1-6.2,1.1h-7.1V75.5
		h0.6H147.8z M143.4,79.4h0.6V46.6h10.9c2.8,0,4.9,0.2,6.3,0.6l0,0c1.8,0.5,3.4,1.4,4.8,2.8c1.4,1.3,2.4,3,3.2,5.1
		c0.8,2.1,1.2,4.5,1.2,7.4c0,3.7-0.7,6.8-2,9.4c-1.3,2.6-2.9,4.3-4.9,5.4c-2,1-4.7,1.6-8,1.6h-12V79.4h0.6H143.4V80h12
		c3.5,0,6.3-0.6,8.5-1.7c2.2-1.2,4-3.1,5.4-5.8c1.4-2.7,2.1-6,2.1-9.9c0-3-0.4-5.6-1.2-7.8c-0.8-2.2-2-4.1-3.4-5.5
		c-1.5-1.5-3.2-2.5-5.3-3.1l0,0c-1.6-0.4-3.7-0.6-6.6-0.6h-12V80h0.6V79.4z"/>
	<rect x="177.8" y="46.1" class="st2" width="4.4" height="33.3"/>
	<polygon class="st2" points="177.8,79.4 178.4,79.4 178.4,46.6 181.6,46.6 181.6,78.9 177.8,78.9 177.8,79.4 178.4,79.4 
		177.8,79.4 177.8,80 182.8,80 182.8,45.5 177.2,45.5 177.2,80 177.8,80 	"/>
	<path class="st2" d="M213.4,67.7l4.4,1.1c-1,3.7-2.7,6.5-5.1,8.4c-2.4,1.8-5.4,2.8-8.9,2.8c-3.1,0-5.7-0.6-7.9-1.9
		c-2.2-1.2-4-3.2-5.4-6c-1.4-2.7-2.1-6-2.1-9.7c0-3.7,0.7-6.8,2.1-9.3c1.4-2.5,3.3-4.5,5.7-5.8c2.4-1.3,5-1.9,8-1.9
		c3.2,0,6,0.8,8.3,2.5c2.3,1.6,3.9,4,4.8,7.2l-4.3,1c-1.5-4.6-4.4-6.9-8.9-6.9c-2.2,0-4.1,0.5-5.8,1.4c-1.6,0.9-2.9,2.4-3.9,4.4
		c-1,2-1.5,4.5-1.5,7.5c0,4.6,1,8,2.9,10.3c2,2.3,4.5,3.4,7.8,3.4c2.4,0,4.5-0.7,6.2-2.1C211.7,72.7,212.8,70.6,213.4,67.7"/>
	<path class="st2" d="M213.4,67.7l-0.1,0.5l4.4,1.1l0.1-0.5l-0.5-0.1c-1,3.7-2.6,6.3-4.9,8.1c-2.3,1.8-5.2,2.6-8.6,2.7
		c-3,0-5.5-0.6-7.6-1.8c-2.1-1.2-3.8-3.1-5.1-5.7c-1.3-2.6-2-5.8-2-9.4c0-3.6,0.7-6.6,2-9.1c1.3-2.5,3.1-4.3,5.4-5.5
		c2.3-1.3,4.8-1.9,7.7-1.9c3.1,0,5.7,0.8,7.9,2.4c2.2,1.6,3.7,3.8,4.6,6.9l0.5-0.2l-0.1-0.5l-4.3,1l0.1,0.5l0.5-0.2
		c-0.8-2.4-1.9-4.2-3.5-5.5c-1.6-1.2-3.6-1.9-5.9-1.9c-2.3,0-4.3,0.5-6,1.5c-1.7,1-3.1,2.5-4.1,4.6c-1,2.1-1.5,4.7-1.5,7.7
		c0,4.6,1,8.2,3.1,10.6c1,1.2,2.2,2.1,3.6,2.7c1.4,0.6,2.9,0.9,4.6,0.9c2.5,0,4.7-0.7,6.6-2.2c1.9-1.5,3.1-3.8,3.7-6.7L213.4,67.7
		l-0.1,0.5L213.4,67.7l-0.5-0.1c-0.6,2.8-1.7,4.8-3.3,6.1c-1.6,1.3-3.6,2-5.8,2c-1.6,0-2.9-0.3-4.2-0.8c-1.2-0.5-2.3-1.3-3.2-2.4
		c-1.8-2.1-2.8-5.4-2.8-9.9c0-3,0.5-5.4,1.4-7.2c0.9-1.9,2.1-3.2,3.7-4.1c1.5-0.9,3.3-1.3,5.5-1.3c2.1,0,3.8,0.5,5.2,1.6
		c1.4,1.1,2.4,2.7,3.1,4.9l0.2,0.5l5.4-1.3l-0.2-0.6c-0.9-3.3-2.6-5.8-5-7.5c-2.4-1.7-5.3-2.6-8.6-2.6c-3,0-5.8,0.7-8.2,2
		c-2.5,1.3-4.4,3.4-5.9,6c-1.4,2.6-2.2,5.8-2.2,9.6c0,3.8,0.7,7.1,2.1,9.9c1.4,2.8,3.3,4.9,5.6,6.2c2.3,1.3,5,1.9,8.2,1.9
		c3.6,0,6.7-1,9.2-2.9c2.6-1.9,4.3-4.9,5.3-8.7l0.1-0.5L213,67l-0.1,0.6L213.4,67.7z"/>
	<rect x="224.2" y="46.1" class="st2" width="4.4" height="33.3"/>
	<polygon class="st2" points="224.2,79.4 224.7,79.4 224.7,46.6 228,46.6 228,78.9 224.2,78.9 224.2,79.4 224.7,79.4 224.2,79.4 
		224.2,80 229.1,80 229.1,45.5 223.6,45.5 223.6,80 224.2,80 	"/>
	<path class="st2" d="M239.5,63.2c0,4.1,1.1,7.3,3.3,9.6c2.2,2.3,4.9,3.4,8,3.4c3.2,0,5.9-1.1,8.1-3.4c2.2-2.3,3.3-5.7,3.3-10.1
		c0-2.9-0.6-5.4-1.7-7.7c-0.9-1.7-2.2-3.1-3.9-4.2c-1.7-1-3.6-1.6-5.7-1.6c-3.3,0-6,1.1-8.2,3.4C240.6,54.9,239.5,58.5,239.5,63.2
		 M235,63.2c0-5.7,1.5-10.1,4.6-13.1c3-3.1,6.8-4.6,11.3-4.6c2.9,0,5.6,0.7,8,2c2.4,1.4,4.3,3.3,5.7,5.9c1.4,2.6,2.1,5.7,2.1,9.3
		c0,4.9-1.4,9-4.1,12.1c-3,3.4-6.9,5.1-11.8,5.1c-4.9,0-8.8-1.8-11.8-5.3C236.3,71.5,235,67.7,235,63.2"/>
	<path class="st2" d="M239.5,63.2h-0.6c0,2.1,0.3,4,0.9,5.7c0.6,1.7,1.4,3.1,2.6,4.3c2.3,2.4,5.1,3.6,8.4,3.6c3.4,0,6.2-1.2,8.5-3.6
		c1.2-1.2,2-2.7,2.6-4.5c0.6-1.8,0.8-3.8,0.8-6c0-2.9-0.6-5.6-1.7-7.9v0c-0.9-1.8-2.3-3.3-4.1-4.4c-1.8-1.1-3.8-1.6-6-1.6
		c-3.4,0-6.4,1.2-8.6,3.6c-1.1,1.2-2,2.7-2.5,4.6c-0.6,1.8-0.8,4-0.8,6.4H239.5h0.6c0-2.3,0.3-4.4,0.8-6.1c0.5-1.7,1.3-3.1,2.3-4.1
		c2-2.2,4.6-3.2,7.8-3.2c2,0,3.8,0.5,5.4,1.5c1.7,1,2.9,2.3,3.7,3.9l0,0l0,0c1.1,2.2,1.6,4.6,1.6,7.4c0,2.2-0.3,4.1-0.8,5.7
		c-0.5,1.6-1.3,3-2.3,4c-2.1,2.2-4.6,3.3-7.7,3.3c-3,0-5.5-1.1-7.6-3.2c-1-1.1-1.8-2.4-2.3-3.9c-0.5-1.5-0.8-3.3-0.8-5.3H239.5z
		 M235,63.2h0.6c0-2.8,0.4-5.2,1.1-7.4c0.7-2.1,1.8-3.9,3.3-5.4c2.9-3,6.5-4.4,10.9-4.4c2.8,0,5.4,0.7,7.7,2
		c2.3,1.3,4.1,3.2,5.5,5.7c1.4,2.5,2,5.5,2,9c0,4.8-1.3,8.7-3.9,11.7c-1.5,1.7-3.1,2.9-5,3.7c-1.9,0.8-4,1.2-6.4,1.2
		c-2.4,0-4.5-0.4-6.4-1.3c-1.9-0.8-3.5-2.1-5-3.8c-2.6-3.1-3.9-6.8-3.9-11.2H235h-0.6c0,4.6,1.4,8.6,4.2,11.9
		c1.5,1.8,3.3,3.2,5.4,4.1c2,0.9,4.3,1.4,6.9,1.4c2.5,0,4.8-0.4,6.8-1.3c2-0.9,3.8-2.2,5.4-4c2.8-3.2,4.2-7.4,4.2-12.4
		c0-3.7-0.7-6.9-2.2-9.6c-1.5-2.7-3.4-4.8-5.9-6.2c-2.5-1.4-5.3-2.1-8.3-2.1c-4.7,0-8.6,1.6-11.7,4.7c-1.6,1.6-2.8,3.5-3.5,5.8
		c-0.8,2.3-1.2,4.8-1.2,7.7H235z"/>
	<polygon class="st2" points="272.2,79.4 272.2,46.1 276.7,46.1 294.1,72.3 294.1,46.1 298.3,46.1 298.3,79.4 293.8,79.4 
		276.4,53.2 276.4,79.4 	"/>
	<polygon class="st2" points="272.2,79.4 272.7,79.4 272.7,46.6 276.4,46.6 294.7,74.2 294.7,46.6 297.7,46.6 297.7,78.9 
		294.1,78.9 275.8,51.3 275.8,78.9 272.2,78.9 272.2,79.4 272.7,79.4 272.2,79.4 272.2,80 276.9,80 276.9,55 293.5,80 298.9,80 
		298.9,45.5 293.5,45.5 293.5,70.4 277,45.5 271.6,45.5 271.6,80 272.2,80 	"/>
	<g>
		<path class="st3" d="M288,16.4c-0.2,0.1-0.3,0.2-0.5,0.4c-1.5,1.5-3.1,3.1-4.6,4.6c-8.8-8.5-19.2-13.1-31.5-13.1
			c-12.2,0-22.7,4.5-31.6,13.1c-0.6-0.6-1.2-1.3-1.8-1.9c-0.9-0.9-1.9-1.9-2.8-2.8c-0.1-0.1-0.3-0.2-0.5-0.3c0,0,0-0.1,0-0.1
			c1.5-1.4,3-2.8,4.6-4.1c7.6-6,16.3-9.6,25.9-10.8c1.1-0.1,2.3-0.2,3.4-0.4c1.8,0,3.6,0,5.3,0c0.2,0,0.4,0.1,0.6,0.1
			c5.2,0.3,10.2,1.4,15,3.2c7,2.6,13.1,6.6,18.3,11.9C288,16.3,288,16.3,288,16.4z"/>
		<path class="st3" d="M277.6,26.5c-1.7,1.7-3.4,3.4-5.1,5.1c-5.9-5.7-12.9-8.8-21.1-8.8c-8.2,0-15.3,3.1-21.1,8.7
			c-1.7-1.7-3.4-3.4-5.1-5.1C238.3,12.7,262.6,11.3,277.6,26.5z"/>
		<path class="st3" d="M240.5,41.9c-1.7-1.7-3.4-3.4-5.1-5.1c7.8-8.5,23-9.3,31.8,0c-1.7,1.7-3.4,3.4-5.1,5.1
			c-3-2.9-6.6-4.5-10.8-4.5C247.2,37.5,243.6,39,240.5,41.9z"/>
	</g>
</g>
</svg>
